<?xml version="1.0" encoding="UTF-8" standalone="no"?>
<svg
   version="1.1"
   id="Camada_1"
   x="0"
   y="0"
   viewBox="0 0 50.8 50.5"
   xml:space="preserve"
   sodipodi:docname="address.svg"
   inkscape:version="1.2.1 (9c6d41e410, 2022-07-14)"
   xmlns:inkscape="http://www.inkscape.org/namespaces/inkscape"
   xmlns:sodipodi="http://sodipodi.sourceforge.net/DTD/sodipodi-0.dtd"
   xmlns:xlink="http://www.w3.org/1999/xlink"
   xmlns="http://www.w3.org/2000/svg"
   xmlns:svg="http://www.w3.org/2000/svg"><sodipodi:namedview
     id="namedview18451"
     pagecolor="#ffffff"
     bordercolor="#999999"
     borderopacity="1"
     inkscape:showpageshadow="0"
     inkscape:pageopacity="0"
     inkscape:pagecheckerboard="0"
     inkscape:deskcolor="#d1d1d1"
     showgrid="false"
     inkscape:zoom="8.2079208"
     inkscape:cx="23.696622"
     inkscape:cy="38.864897"
     inkscape:window-width="1920"
     inkscape:window-height="1009"
     inkscape:window-x="-8"
     inkscape:window-y="-8"
     inkscape:window-maximized="1"
     inkscape:current-layer="Camada_1" /><style
     id="style18436">.st1{fill:#fff}</style><defs
     id="defs18439"><path
       id="SVGID_1_"
       d="M.3.1h50.3v50.3H.3z" /><clipPath
       id="SVGID_2_-5"><use
         xlink:href="#SVGID_1_"
         overflow="visible"
         id="use18441-7" /></clipPath></defs><clipPath
     id="SVGID_2_"><use
       xlink:href="#SVGID_1_"
       overflow="visible"
       id="use18441" /></clipPath><path
     d="M25.4 50.4c13.9 0 25.2-11.3 25.2-25.2C50.6 11.3 39.3 0 25.4 0S.3 11.4.3 25.3s11.2 25.1 25.1 25.1"
     clip-path="url(#SVGID_2_)"
     fill="#83171a"
     id="path18444"
     style="fill:#9c8143;fill-opacity:1" /><path
     d="M 25.399999,9.8957529 A 12.078229,12.078229 0 0 0 13.33548,21.960275 c 0,10.323389 10.967745,18.124199 11.433874,18.453228 a 1.1379035,1.1379035 0 0 0 1.261291,0 C 26.496774,40.084474 37.464519,32.283664 37.464519,21.960275 A 12.078229,12.078229 0 0 0 25.399999,9.8957529 Z m 0,7.6774191 a 4.3870983,4.3870983 0 1 1 -4.387098,4.387103 4.3870983,4.3870983 0 0 1 4.387098,-4.387103 z"
     id="path20232"
     style="fill:#ffffff;fill-opacity:1;stroke-width:0.137097" /></svg>
