<?xml version="1.0" encoding="UTF-8" standalone="no"?>
<svg
   version="1.1"
   width="232.90674pt"
   height="96.673813pt"
   id="svg583"
   viewBox="0 0 232.90674 96.673813"
   sodipodi:docname="Logotipo - coreldraw.cdr"
   xmlns:inkscape="http://www.inkscape.org/namespaces/inkscape"
   xmlns:sodipodi="http://sodipodi.sourceforge.net/DTD/sodipodi-0.dtd"
   xmlns="http://www.w3.org/2000/svg"
   xmlns:svg="http://www.w3.org/2000/svg">
  <defs
     id="defs587" />
  <sodipodi:namedview
     id="namedview585"
     pagecolor="#ffffff"
     bordercolor="#999999"
     borderopacity="1"
     inkscape:showpageshadow="0"
     inkscape:pageopacity="0"
     inkscape:pagecheckerboard="0"
     inkscape:deskcolor="#d1d1d1"
     showgrid="false"
     inkscape:document-units="pt" />
  <g
     id="Layer1000"
     transform="translate(-47.532279,-76.600202)">
    <g
       id="Layer1001"
       inkscape:export-filename="..\..\..\..\Home Suh\img\01.svg"
       inkscape:export-xdpi="96"
       inkscape:export-ydpi="96">
      <path
         d="m 51.2396,139.5051 c -1.0284,-0.9522 -1.3167,-2.16 -1.3167,-3.009 0,-1.9913 1.6104,-3.7545 4.0156,-3.7545 2.035,0 3.6836,1.2734 3.6728,3.3628 h 0.3155 v -3.6184 -0.3864 h -1.2951 c -0.8651,-0.1905 -1.9423,-0.3373 -2.7967,-0.3373 -3.7219,0 -5.7404,2.764 -5.7404,5.5173 0,1.2626 0.4515,2.8403 1.7682,4.0485 l 6.2575,5.8056 c 0.8161,0.7563 1.2787,1.7683 1.2787,3.0416 0,2.6118 -1.9916,4.2443 -4.3747,4.3747 -2.9055,0.1633 -5.0332,-1.9914 -4.7066,-5.3541 h -0.2883 c -0.4952,1.4638 -0.6205,3.5422 -0.3756,4.5488 1.2841,1.3277 3.9285,1.7847 5.5284,1.7847 3.7542,0 6.1104,-2.492 6.1104,-6.105 0,-1.3167 -0.332,-2.7749 -1.6379,-3.9776 z m 26.0144,-4.0209 v 0.3265 h 0.4842 c 0.8489,0 1.54,0.593 1.5672,1.393 v 10.9692 c -0.011,4.0102 -2.5412,6.4698 -6.6546,6.4698 -3.7545,0 -6.0505,-2.5957 -6.0505,-6.8344 v -10.5831 c 0.0161,-0.8107 0.7126,-1.4145 1.5724,-1.4145 h 0.4841 v -0.3265 h -6.1974 v 0.3265 h 0.4842 c 0.8597,0 1.5508,0.6038 1.5727,1.4145 v 10.9967 c 0,4.5326 3.1232,7.3075 8.1617,7.3075 5.0386,0 8.14,-2.7967 8.14,-7.3565 v -10.9857 c 0.038,-0.7889 0.7237,-1.3765 1.567,-1.3765 h 0.4844 v -0.3265 z m 23.6092,14.9034 h -0.3538 c -0.9249,2.1166 -2.0403,3.6456 -5.18,3.689 h -5.1038 v -8.3086 h 5.6535 c 0.8543,0.049 1.2461,0.6528 1.2461,1.3821 v 0.419 h 0.3591 v -4.587 l -0.3591,0.005 v 0.4135 c 0,0.7563 -0.419,1.3712 -1.3224,1.3876 h -5.5772 v -8.3032 h 6.7689 c 0.9958,0.0161 1.6378,0.7616 1.6378,1.6758 v 0.5006 l 0.3538,0.005 v -3.6947 c -0.5661,0.2231 -2.3343,0.5006 -3.6456,0.5117 h -9.5386 l 0.0057,0.3265 h 0.4515 c 1.061,0 1.8825,0.7345 1.8825,1.7084 v 15.4965 c -0.038,0.9632 -0.8322,1.7303 -1.8825,1.7303 h -0.4515 l -0.0057,0.3265 h 13.2658 z m 17.1508,0 c -0.9307,2.1112 -2.0461,3.6456 -5.1801,3.6836 h -5.1094 v -16.4976 c 0.0218,-0.974 0.8869,-1.7629 1.9533,-1.7629 h 0.381 l 0.005,-0.3265 h -6.7635 l 0.006,0.3265 h 0.3864 c 1.0663,0 1.9261,0.7889 1.9476,1.7683 v 15.4366 c -0.0379,0.9632 -0.8322,1.7303 -1.8824,1.7303 h -0.4462 l -0.0111,0.3265 h 13.2659 l 1.8008,-4.6848 z m 17.0634,0 h -0.3538 c -0.9249,2.1166 -2.0404,3.6456 -5.18,3.689 h -5.1038 v -8.3086 h 5.6534 c 0.8544,0.049 1.2461,0.6528 1.2461,1.3821 v 0.419 h 0.3592 v -4.587 l -0.3592,0.005 v 0.4135 c 0,0.7563 -0.4189,1.3712 -1.3223,1.3876 h -5.5772 v -8.3032 h 6.7689 c 0.9958,0.0161 1.6378,0.7616 1.6378,1.6758 v 0.5006 l 0.3538,0.005 v -3.6947 c -0.5661,0.2231 -2.3343,0.5006 -3.6457,0.5117 h -9.5385 l 0.006,0.3265 h 0.4516 c 1.061,0 1.8825,0.7345 1.8825,1.7084 v 15.4965 c -0.038,0.9632 -0.8323,1.7303 -1.8825,1.7303 h -0.4516 l -0.006,0.3265 h 13.2658 z m 19.0933,-14.9034 0.005,0.3265 h 0.544 c 0.9632,0 1.7574,0.718 1.8119,1.6322 v 13.5377 l -16.9385,-15.9698 -0.3534,-0.0165 c 0,0 0.3155,1.8502 0.3155,4.0811 v 13.9674 c -0.0219,0.9414 -0.8272,1.7031 -1.8173,1.7031 h -0.5443 l -0.005,0.3265 h 6.1705 v -0.3265 h -0.5443 c -0.9958,0 -1.8011,-0.7617 -1.8173,-1.7031 v -13.6247 l 16.9765,16.1113 h 0.3101 c 0,0 -0.3101,-2.0623 -0.3101,-4.1624 v -13.9241 c 0.0598,-0.9088 0.8489,-1.6322 1.8172,-1.6322 h 0.5443 v -0.3265 z m 40.7273,8.9671 v -0.3266 h -6.3935 v 0.3266 h 0.517 c 1.0557,0 1.6759,0.5332 1.6759,1.4853 v 5.7895 c -1.8828,1.7357 -4.5272,2.8293 -7.3619,2.8293 -5.5338,-0.0272 -9.2883,-4.3909 -9.2883,-10.9094 0,-6.5404 3.7545,-10.9044 9.2883,-10.9044 4.3093,0 7.2967,2.1005 8.2868,5.8386 h 0.2722 l -0.6585,-4.6143 c -1.9151,-1.235 -4.3203,-2.2036 -7.9115,-2.2036 -6.9322,0 -11.7258,4.7557 -11.7258,11.8837 0,7.1061 4.7936,11.8508 11.7368,11.8834 4.9025,0 7.9495,-2.2252 9.4405,-4.2061 v -5.3974 c -0.0164,-0.9414 0.5766,-1.4746 1.6322,-1.4746 z m 13.4451,-9.4244 c -6.0942,0 -11.0183,4.1845 -11.0183,10.2512 0,6.067 4.9241,10.2513 11.0183,10.2513 6.0888,0 11.0131,-4.1843 11.0131,-10.2513 0,-6.0667 -4.9243,-10.2512 -11.0131,-10.2512 z m 0,19.5231 c -4.8045,0 -8.597,-3.7488 -8.597,-9.2719 0,-5.5173 3.7925,-9.2715 8.597,-9.2715 4.799,0 8.5972,3.7542 8.5972,9.2715 0,5.5231 -3.7982,9.2719 -8.5972,9.2719 z m 35.384,-19.512 h -0.3101 l -8.3305,16.5685 -8.619,-16.5796 h -0.3209 l -2.5248,17.8691 c -0.1576,1.1644 -1.1427,1.8499 -2.2363,1.8499 h -0.4898 v 0.3265 h 6.0562 v -0.3101 h -0.4787 c -0.6639,0 -1.2734,-0.5876 -1.1971,-1.2623 l 1.4689,-13.1405 7.8627,15.1699 h 0.3155 c 0.2285,-1.3493 1.1645,-3.3353 1.1645,-3.3353 l 6.1484,-12.134 1.7195,13.4399 c 0.087,0.7073 -0.5386,1.2623 -1.1971,1.2623 h -0.4788 v 0.3101 h 6.7796 v -0.3265 h -0.4841 c -1.0775,0 -2.0458,-0.6582 -2.2309,-1.7901 z m 22.4286,15.3496 h -0.3538 c -0.925,2.1166 -2.0404,3.6456 -5.18,3.689 h -5.1038 v -8.3086 h 5.6534 c 0.8544,0.049 1.2461,0.6528 1.2461,1.3821 v 0.419 h 0.3592 v -4.587 l -0.3592,0.005 v 0.4135 c 0,0.7563 -0.419,1.3712 -1.3224,1.3876 h -5.5771 v -8.3032 h 6.7688 c 0.9958,0.0161 1.6379,0.7616 1.6379,1.6758 v 0.5006 l 0.3538,0.005 v -3.6947 c -0.5661,0.2231 -2.3344,0.5006 -3.6457,0.5117 h -9.5386 l 0.006,0.3265 h 0.4516 c 1.061,0 1.8824,0.7345 1.8824,1.7084 v 15.4965 c -0.0379,0.9632 -0.8322,1.7303 -1.8824,1.7303 H 251.1 l -0.006,0.3265 h 13.2659 z m 6.1922,-8.7114 c -1.023,-0.8215 -1.2733,-1.7303 -1.2787,-2.5682 -0.0164,-1.7357 1.7411,-3.1125 3.9229,-3.1125 2.5628,0 3.7709,1.0775 3.7709,2.884 h 0.3753 l -0.0487,-3.5478 h -1.0939 c -0.7291,-0.1741 -1.7357,-0.3048 -3.2267,-0.3048 -3.0251,0 -5.4411,2.1113 -5.3974,4.7668 0.0161,1.1316 0.3427,2.4919 1.5562,3.5257 l 6.5347,5.044 c 0.8379,0.7347 1.1863,1.567 1.1863,2.5792 0,2.122 -1.6486,3.5314 -4.3475,3.6074 -2.884,0.0816 -4.8645,-1.6705 -4.5763,-4.614 h -0.3753 c -0.4461,1.2623 -0.5278,3.1884 -0.3211,4.0536 1.1863,1.0664 3.6946,1.5398 5.6318,1.5398 3.221,0 5.8003,-2.3451 5.7785,-5.256 -0.0108,-1.268 -0.4734,-2.6609 -1.48,-3.5096 z"
         style="fill:#002455;fill-rule:evenodd"
         id="path4" />
      <path
         d="m 103.7197,168.9058 c 0.3424,0 0.6454,-0.0454 0.9074,-0.1361 0.2619,-0.0907 0.4827,-0.2186 0.6621,-0.3815 0.1795,-0.163 0.3135,-0.3569 0.4042,-0.5837 0.0908,-0.2268 0.1361,-0.4765 0.1361,-0.7486 0,-0.565 -0.1732,-1.0063 -0.5218,-1.3241 -0.3484,-0.3175 -0.8785,-0.4765 -1.588,-0.4765 h -1.423 v 3.6505 z m 0,-4.597 c 0.561,0 1.0497,0.0638 1.4644,0.1939 0.4144,0.1298 0.7568,0.3155 1.0289,0.5547 0.2724,0.2393 0.4765,0.5281 0.6106,0.8663 0.1341,0.3382 0.2001,0.7155 0.2001,1.1322 0,0.4124 -0.0722,0.79 -0.2165,1.1321 -0.1443,0.3425 -0.3549,0.6375 -0.6333,0.885 -0.2783,0.2475 -0.6228,0.4391 -1.0332,0.5774 -0.4105,0.1381 -0.8847,0.2084 -1.421,0.2084 h -1.423 v 3.3162 h -1.1942 v -8.8662 z m 16.6031,1.3859 c -0.0372,0.0618 -0.0766,0.1071 -0.1197,0.1383 -0.0433,0.0309 -0.0969,0.0473 -0.159,0.0473 -0.07,0 -0.1525,-0.0351 -0.2474,-0.1051 -0.0947,-0.07 -0.2124,-0.1486 -0.3547,-0.233 -0.1423,-0.0848 -0.3135,-0.161 -0.5136,-0.2311 -0.2001,-0.07 -0.4433,-0.1051 -0.7279,-0.1051 -0.2682,0 -0.5032,0.0351 -0.7076,0.1071 -0.204,0.0723 -0.3753,0.1712 -0.5133,0.2951 -0.1383,0.1236 -0.2435,0.2679 -0.3135,0.4351 -0.0703,0.167 -0.1052,0.3484 -0.1052,0.5423 0,0.2475 0.0618,0.4518 0.1834,0.6146 0.1219,0.1629 0.2826,0.3033 0.4828,0.4186 0.1998,0.1157 0.4269,0.2146 0.6806,0.2991 0.2537,0.0847 0.5133,0.1732 0.7795,0.2642 0.2659,0.0907 0.5258,0.1916 0.7795,0.305 0.2537,0.1137 0.4805,0.2579 0.6806,0.4311 0.2001,0.1732 0.3609,0.3858 0.4827,0.6373 0.1217,0.2517 0.1815,0.5609 0.1815,0.928 0,0.3878 -0.0661,0.7509 -0.1982,1.0911 -0.1318,0.3404 -0.3237,0.6372 -0.5774,0.8889 -0.2537,0.2517 -0.5649,0.4496 -0.9343,0.5939 -0.3691,0.1446 -0.7897,0.2166 -1.26,0.2166 -0.5774,0 -1.1013,-0.1052 -1.5715,-0.3136 -0.4703,-0.2083 -0.8725,-0.4887 -1.2064,-0.8433 l 0.3463,-0.5694 c 0.0329,-0.0454 0.0743,-0.0845 0.1217,-0.1154 0.0473,-0.0309 0.0989,-0.0454 0.1567,-0.0454 0.0536,0 0.1157,0.0207 0.1837,0.0641 0.068,0.0431 0.1443,0.0989 0.231,0.165 0.0865,0.0657 0.1854,0.138 0.2968,0.2165 0.1114,0.0783 0.2392,0.1506 0.3815,0.2163 0.1423,0.0661 0.3034,0.1196 0.4848,0.163 0.1814,0.0434 0.3858,0.0661 0.6125,0.0661 0.2846,0 0.5383,-0.0392 0.7611,-0.1177 0.2226,-0.0782 0.4125,-0.1896 0.567,-0.3319 0.1547,-0.1423 0.2724,-0.3115 0.3549,-0.5094 0.0825,-0.1981 0.1236,-0.4187 0.1236,-0.6622 0,-0.2678 -0.0599,-0.4887 -0.1815,-0.6599 -0.1216,-0.1712 -0.2826,-0.3135 -0.4804,-0.4289 -0.1982,-0.1156 -0.4249,-0.2145 -0.6806,-0.295 -0.2557,-0.0803 -0.5157,-0.1628 -0.7796,-0.2475 -0.2641,-0.0845 -0.5238,-0.1814 -0.7798,-0.2928 -0.2557,-0.1114 -0.4824,-0.2557 -0.6803,-0.4332 -0.1981,-0.1771 -0.3569,-0.3999 -0.4785,-0.6661 -0.1219,-0.2659 -0.1837,-0.5939 -0.1837,-0.9856 0,-0.3135 0.0618,-0.6168 0.1837,-0.9097 0.1216,-0.2928 0.2991,-0.5527 0.5321,-0.7795 0.233,-0.227 0.5196,-0.4085 0.86,-0.5445 0.3402,-0.1361 0.7299,-0.2041 1.1713,-0.2041 0.4949,0 0.9468,0.0782 1.353,0.235 0.4062,0.1567 0.7631,0.3835 1.0723,0.6806 z m 10.6322,7.4803 h -1.2005 v -8.8662 h 1.2005 z m 15.7427,-1.8314 c 0.0661,0 0.1239,0.0269 0.1732,0.0805 l 0.4765,0.5136 c -0.3628,0.4207 -0.8022,0.7486 -1.3198,0.9836 -0.5176,0.2353 -1.1446,0.3527 -1.8788,0.3527 -0.6352,0 -1.2129,-0.1114 -1.7325,-0.332 -0.5196,-0.2208 -0.9632,-0.5301 -1.3303,-0.928 -0.3671,-0.398 -0.6517,-0.8745 -0.8538,-1.4315 -0.2021,-0.5568 -0.303,-1.1693 -0.303,-1.8375 0,-0.6681 0.1051,-1.2807 0.3155,-1.8377 0.2103,-0.5567 0.5074,-1.0352 0.8889,-1.4354 0.3815,-0.4 0.8371,-0.7115 1.3694,-0.9321 0.5321,-0.2208 1.1197,-0.3299 1.7632,-0.3299 0.6312,0 1.188,0.1009 1.6707,0.303 0.4825,0.2021 0.9074,0.4765 1.2745,0.8229 l -0.396,0.5508 c -0.0247,0.0411 -0.0556,0.0743 -0.095,0.1009 -0.0391,0.0269 -0.0927,0.0414 -0.1587,0.0414 -0.0743,0 -0.165,-0.0414 -0.2722,-0.1216 -0.1074,-0.0805 -0.2474,-0.1693 -0.4209,-0.2682 -0.1732,-0.0992 -0.3898,-0.1899 -0.6494,-0.2701 -0.26,-0.0805 -0.5797,-0.1196 -0.9593,-0.1196 -0.4578,0 -0.8764,0.0782 -1.2557,0.2369 -0.3796,0.1591 -0.7056,0.3898 -0.9797,0.6911 -0.2744,0.3011 -0.4889,0.6681 -0.6414,1.1013 -0.1525,0.4331 -0.2291,0.9218 -0.2291,1.4663 0,0.5528 0.0805,1.0457 0.2393,1.4789 0.159,0.4328 0.3753,0.7979 0.6497,1.097 0.2744,0.299 0.5981,0.5281 0.9714,0.6848 0.3733,0.1568 0.7756,0.235 1.2087,0.235 0.2639,0 0.5031,-0.0164 0.7155,-0.0473 0.2125,-0.0309 0.4084,-0.0785 0.5879,-0.1446 0.1794,-0.0657 0.3464,-0.1505 0.5011,-0.2514 0.1545,-0.1012 0.3073,-0.2208 0.4598,-0.3609 0.0703,-0.062 0.1403,-0.0929 0.2103,-0.0929 z m 17.3146,-2.5986 c 0,0.6642 -0.1052,1.2725 -0.3155,1.8273 -0.2103,0.5547 -0.5074,1.0332 -0.8909,1.4334 -0.3835,0.4 -0.8436,0.7095 -1.3819,0.9301 -0.5383,0.2208 -1.1341,0.3319 -1.7858,0.3319 -0.652,0 -1.2459,-0.1111 -1.7822,-0.3319 -0.536,-0.2206 -0.9961,-0.5301 -1.3796,-0.9301 -0.3835,-0.4002 -0.6806,-0.8787 -0.8909,-1.4334 -0.2104,-0.5548 -0.3155,-1.1631 -0.3155,-1.8273 0,-0.6641 0.1051,-1.2744 0.3155,-1.8294 0.2103,-0.5548 0.5074,-1.0333 0.8909,-1.4355 0.3835,-0.402 0.8436,-0.7135 1.3796,-0.9363 0.5363,-0.2225 1.1302,-0.3339 1.7822,-0.3339 0.6517,0 1.2475,0.1114 1.7858,0.3339 0.5383,0.2228 0.9984,0.5343 1.3819,0.9363 0.3835,0.4022 0.6806,0.8807 0.8909,1.4355 0.2103,0.555 0.3155,1.1653 0.3155,1.8294 z m -1.2311,0 c 0,-0.5445 -0.0742,-1.0332 -0.2228,-1.4663 -0.1485,-0.4332 -0.3588,-0.8002 -0.631,-1.0993 -0.2724,-0.2991 -0.6023,-0.5281 -0.9901,-0.6888 -0.3878,-0.161 -0.8206,-0.2412 -1.2991,-0.2412 -0.4745,0 -0.9054,0.0802 -1.2932,0.2412 -0.3878,0.1607 -0.7177,0.3897 -0.9921,0.6888 -0.2744,0.2991 -0.4867,0.6661 -0.6353,1.0993 -0.1485,0.4331 -0.2228,0.9218 -0.2228,1.4663 0,0.5446 0.0743,1.0313 0.2228,1.4621 0.1486,0.4312 0.3609,0.7963 0.6353,1.0954 0.2744,0.299 0.6043,0.5278 0.9921,0.6865 0.3878,0.159 0.8187,0.2393 1.2932,0.2393 0.4785,0 0.9113,-0.0803 1.2991,-0.2393 0.3878,-0.1587 0.7177,-0.3875 0.9901,-0.6865 0.2722,-0.2991 0.4825,-0.6642 0.631,-1.0954 0.1486,-0.4308 0.2228,-0.9175 0.2228,-1.4621 z m -0.7857,-7.0287 -2.0172,1.7696 c -0.0618,0.0578 -0.1216,0.0927 -0.1794,0.1052 -0.0578,0.0125 -0.1278,0.0184 -0.2103,0.0184 h -0.792 l 1.4292,-1.6951 c 0.0703,-0.0907 0.1423,-0.1466 0.2146,-0.167 0.072,-0.0207 0.1752,-0.0311 0.3112,-0.0311 z m 16.0151,10.4502 v 1.0085 h -5.0303 v -8.8662 h 1.1942 v 7.8577 z m 16.3554,-3.4215 c 0,0.6642 -0.1052,1.2725 -0.3155,1.8273 -0.2103,0.5547 -0.5074,1.0332 -0.8909,1.4334 -0.3836,0.4 -0.8436,0.7095 -1.3819,0.9301 -0.5383,0.2208 -1.1342,0.3319 -1.7859,0.3319 -0.6519,0 -1.2458,-0.1111 -1.7821,-0.3319 -0.536,-0.2206 -0.9961,-0.5301 -1.3796,-0.9301 -0.3835,-0.4002 -0.6806,-0.8787 -0.891,-1.4334 -0.2103,-0.5548 -0.3154,-1.1631 -0.3154,-1.8273 0,-0.6641 0.1051,-1.2744 0.3154,-1.8294 0.2104,-0.5548 0.5075,-1.0333 0.891,-1.4355 0.3835,-0.402 0.8436,-0.7135 1.3796,-0.9363 0.5363,-0.2225 1.1302,-0.3339 1.7821,-0.3339 0.6517,0 1.2476,0.1114 1.7859,0.3339 0.5383,0.2228 0.9983,0.5343 1.3819,0.9363 0.3835,0.4022 0.6806,0.8807 0.8909,1.4355 0.2103,0.555 0.3155,1.1653 0.3155,1.8294 z m -1.2311,0 c 0,-0.5445 -0.0743,-1.0332 -0.2228,-1.4663 -0.1485,-0.4332 -0.3589,-0.8002 -0.631,-1.0993 -0.2724,-0.2991 -0.6024,-0.5281 -0.9901,-0.6888 -0.3878,-0.161 -0.8207,-0.2412 -1.2992,-0.2412 -0.4745,0 -0.9053,0.0802 -1.2931,0.2412 -0.3878,0.1607 -0.7178,0.3897 -0.9921,0.6888 -0.2744,0.2991 -0.4868,0.6661 -0.6353,1.0993 -0.1485,0.4331 -0.2228,0.9218 -0.2228,1.4663 0,0.5446 0.0743,1.0313 0.2228,1.4621 0.1485,0.4312 0.3609,0.7963 0.6353,1.0954 0.2743,0.299 0.6043,0.5278 0.9921,0.6865 0.3878,0.159 0.8186,0.2393 1.2931,0.2393 0.4785,0 0.9114,-0.0803 1.2992,-0.2393 0.3877,-0.1587 0.7177,-0.3875 0.9901,-0.6865 0.2721,-0.2991 0.4825,-0.6642 0.631,-1.0954 0.1485,-0.4308 0.2228,-0.9175 0.2228,-1.4621 z m 17.401,0.167 v 3.403 c -0.4456,0.3217 -0.9198,0.561 -1.4252,0.7197 -0.5052,0.1587 -1.0599,0.2393 -1.6623,0.2393 -0.7134,0 -1.3569,-0.1114 -1.9304,-0.332 -0.5731,-0.2208 -1.0621,-0.5301 -1.4683,-0.928 -0.4062,-0.398 -0.7197,-0.8745 -0.9383,-1.4315 -0.2188,-0.5568 -0.3279,-1.1693 -0.3279,-1.8375 0,-0.6766 0.1071,-1.2931 0.3194,-1.8499 0.2126,-0.557 0.5137,-1.0354 0.9054,-1.4334 0.392,-0.398 0.8686,-0.7053 1.4295,-0.9238 0.561,-0.2189 1.1877,-0.328 1.8808,-0.328 0.3507,0 0.6764,0.0247 0.9777,0.0762 0.301,0.0516 0.5794,0.1259 0.8351,0.2228 0.2557,0.097 0.4929,0.2143 0.7115,0.3527 0.2188,0.138 0.4229,0.2948 0.6125,0.468 l -0.3401,0.5445 c -0.0536,0.0825 -0.1219,0.1341 -0.2064,0.1568 -0.0845,0.0226 -0.1794,0.004 -0.2826,-0.0579 -0.0989,-0.0575 -0.2123,-0.1278 -0.3402,-0.2103 -0.1278,-0.0825 -0.2826,-0.163 -0.466,-0.2392 -0.1837,-0.0763 -0.4002,-0.1401 -0.6497,-0.1939 -0.2497,-0.0536 -0.5465,-0.0802 -0.8889,-0.0802 -0.4992,0 -0.9508,0.0802 -1.355,0.2432 -0.4042,0.163 -0.7486,0.396 -1.0332,0.6993 -0.2846,0.303 -0.5034,0.6701 -0.6559,1.1012 -0.1525,0.4309 -0.2291,0.9156 -0.2291,1.4519 0,0.5568 0.0805,1.054 0.2393,1.493 0.159,0.4394 0.3858,0.8127 0.6806,1.12 0.295,0.3073 0.6519,0.5426 1.0726,0.7033 0.4206,0.161 0.8929,0.2412 1.4167,0.2412 0.4125,0 0.7796,-0.0473 1.0993,-0.14 0.3198,-0.093 0.631,-0.2208 0.9363,-0.3858 v -1.9488 h -1.3796 c -0.0785,0 -0.1403,-0.0227 -0.1877,-0.0683 -0.0476,-0.0454 -0.0723,-0.101 -0.0723,-0.167 v -0.6806 z m 13.726,0.9714 -1.3921,-3.6071 c -0.0414,-0.1071 -0.0848,-0.233 -0.1301,-0.3753 -0.0454,-0.1423 -0.0888,-0.2928 -0.1299,-0.4538 -0.0867,0.3342 -0.1754,0.6126 -0.2661,0.8354 l -1.3921,3.6008 z m 2.4995,3.2916 h -0.928 c -0.1074,0 -0.1939,-0.0269 -0.26,-0.0805 -0.066,-0.0536 -0.1153,-0.1216 -0.1485,-0.2041 l -0.8291,-2.1407 h -3.9782 l -0.8291,2.1407 c -0.0249,0.0743 -0.0723,0.1403 -0.1423,0.1979 -0.0703,0.0578 -0.1568,0.0867 -0.2599,0.0867 h -0.9281 l 3.5453,-8.8662 h 1.2127 z"
         style="fill:#a4863b;fill-rule:evenodd"
         id="path6" />
      <g
         id="Layer1002">
        <path
           d="m 182.4719,108.2746 c -0.2331,-0.7675 -0.8889,-1.4754 -1.6974,-1.6235 -0.4979,-0.0921 -0.9922,0.0779 -1.4405,0.2811 -0.1979,0.0893 -0.3809,0.1831 -0.5585,0.2705 0.3991,-0.3174 0.7891,-0.6632 1.1557,-1.0557 1.8747,-2.0069 2.1651,-5.1238 0.6946,-7.4307 -1.5951,-2.503 -4.8154,-4.1292 -7.6653,-2.7084 -1.1138,0.5562 -2.0703,1.5192 -2.5234,2.6883 -0.2317,0.5952 -0.3729,1.2319 -0.3548,1.8724 0.0221,0.7591 0.266,1.4849 0.6533,2.0853 0.7785,1.2116 2.1317,1.8842 3.3708,1.8347 0.6197,-0.0281 1.1945,-0.2375 1.6576,-0.5504 0.4658,-0.3115 0.8185,-0.7264 1.0489,-1.1658 0.2256,-0.4404 0.35,-0.901 0.3473,-1.3301 0.003,-0.4291 -0.108,-0.8164 -0.2642,-1.1328 -0.3219,-0.6367 -0.7999,-0.977 -1.133,-1.1406 -0.1686,-0.085 -0.3052,-0.131 -0.3983,-0.16 -0.0942,-0.0256 -0.1419,-0.039 -0.1419,-0.039 0,0 0.0477,0.0136 0.1412,0.0407 0.0925,0.0298 0.2285,0.0787 0.396,0.164 0.3275,0.1695 0.8033,0.5128 1.1043,1.1503 0.1479,0.3148 0.2469,0.6985 0.2355,1.1163 -0.007,0.4186 -0.1388,0.8648 -0.3675,1.2883 -0.2327,0.4212 -0.584,0.8141 -1.0379,1.1037 -0.4512,0.2912 -1.0086,0.4689 -1.5928,0.477 -1.462,0.0205 -2.9167,-1.0263 -3.3908,-2.3958 -0.3998,-1.1546 -0.2887,-2.2961 0.2979,-3.3684 0.7612,-1.3934 2.405,-2.4521 4.0155,-2.3848 4.2645,0.1785 7.0881,5.2471 4.2747,8.6677 -1.419,1.7245 -3.562,2.6888 -5.5427,3.608 -0.5491,0.2543 -1.1576,0.3772 -1.1076,0.1393 0.4891,-2.314 -2.3168,-4.5197 -4.2614,-3.0823 -1.3239,0.9791 -1.0512,3.3781 0.612,3.4494 2.0807,0.0891 1.6358,-1.9805 0.7898,-2.192 0.3233,0.1336 1.0241,1.2349 0.1117,1.758 -1.0071,0.5771 -2.0199,-0.2506 -2.0143,-1.3464 0.004,-0.8617 0.6026,-1.654 1.4689,-1.7469 2.2994,-0.2464 3.9166,2.871 1.4353,4.3474 -0.4033,0.2396 -0.856,0.3723 -1.2889,0.5497 -0.136,0.0557 -0.2748,0.1144 -0.4062,0.1654 -3.2286,1.2473 -4.7397,2.6039 -4.7397,2.6039 l 1.6282,-1.5891 c -0.6362,-0.8293 -1.2743,-1.7111 -2.0059,-2.4577 -1.5626,-1.5948 -3.8274,-2.5315 -3.7335,-5.1324 0.0202,-0.5606 0.1981,-1.251 0.5319,-1.7137 2.5035,-3.4714 7.2432,-1.4586 6.1087,2.0251 -0.1302,0.3989 -1.0501,2.048 -3.1821,1.5578 -2.0809,-0.4787 -1.4466,-3.4939 0.599,-3.6018 -2.7578,-0.081 -2.8153,3.4979 -0.599,4.0912 1.1739,0.3141 2.5651,-0.1484 3.2485,-1.1573 1.3579,-2.0025 0.5284,-4.2097 -1.29,-5.0957 -1.4573,-0.7101 -3.4163,-0.256 -4.6179,0.6452 -1.2122,0.9089 -2.1051,2.6192 -1.8025,4.1393 0.0991,0.4983 -2.2857,-0.4164 -3.8225,-1.5007 l 0.001,-0.0206 c 0,0 -0.0198,0 -0.0296,0 -2.3938,-1.6918 -4.3656,-3.516 -5.0903,-6.0278 -0.9485,-3.2901 0.5666,-5.8098 1.7907,-7.1224 2.5026,-2.6827 6.966,-3.4902 9.8041,-0.8456 1.9447,1.8122 2.8455,5.0597 1.1708,7.3448 -1.3551,1.8496 -3.8068,2.9335 -5.9988,1.8446 -1.6451,-0.8176 -2.719,-2.8454 -2.1475,-4.6511 0.1493,-0.486 0.3964,-0.8981 0.6747,-1.2189 0.5635,-0.646 1.2147,-0.9247 1.6515,-1.0484 0.2217,-0.0622 0.3977,-0.0853 0.5156,-0.1026 0.1179,-0.0102 0.1792,-0.0168 0.1792,-0.0168 0,0 -0.0613,0.0037 -0.18,0.0108 -0.1181,0.0129 -0.2956,0.0302 -0.5212,0.0858 -0.4437,0.1079 -1.1133,0.3656 -1.7151,1.0085 -0.2968,0.3198 -0.5671,0.7354 -0.7408,1.2372 -0.1768,0.5025 -0.2379,1.0872 -0.1531,1.6982 0.0792,0.6096 0.3004,1.2445 0.6796,1.8278 1.3757,2.1155 4.2524,2.4992 6.3743,1.3308 3.7262,-2.0514 3.6591,-7.217 0.821,-9.9921 -1.4462,-1.414 -3.4685,-2.1715 -5.4901,-2.0455 -0.9797,0.0611 -1.9359,0.2771 -2.8469,0.6442 0.0292,-0.0321 0.0596,-0.0603 0.0882,-0.0938 2.0363,-2.421 -2.0053,-5.8088 -4.1277,-3.5624 -0.4629,0.4895 -0.6818,1.1726 -0.6112,1.8044 0.0379,0.3175 0.1579,0.6175 0.3385,0.8643 0.1796,0.2473 0.4164,0.4423 0.6767,0.5702 0.2597,0.1292 0.542,0.1885 0.8128,0.1885 0.2725,-0.0012 0.5331,-0.0756 0.7489,-0.2051 0.996,-0.5978 0.8204,-2.1656 -0.3568,-2.4091 0.0497,0.0042 0.0996,0.011 0.1485,0.0217 0.149,0.0331 0.3739,0.1141 0.5764,0.321 0.8314,0.8477 -0.0452,2.2394 -1.117,2.2199 -1.7255,-0.0323 -2.2207,-2.1603 -1.1139,-3.2779 1.9693,-1.9886 5.6486,1.0947 3.756,3.2345 -0.1776,0.1988 -0.3812,0.3734 -0.5868,0.5333 -0.2062,0.1611 -0.4152,0.3102 -0.6187,0.4523 -2.3053,1.6157 -3.911,3.9539 -4.207,6.8016 -0.1136,1.0895 0.0821,2.4911 0.2091,2.9723 0.253,0.9656 0.7152,1.8491 1.2623,2.5967 0.4845,0.6621 1.0259,1.226 1.5715,1.7345 -0.23,-0.1015 -0.4731,-0.1989 -0.7395,-0.2664 -0.2921,-0.0726 -0.6154,-0.1042 -0.9377,-0.0449 -2.4923,0.4592 -3.0552,4.5175 -0.4835,5.3095 0.6425,0.2041 1.3526,0.1056 1.8915,-0.2323 0.2696,-0.1716 0.4875,-0.4098 0.6317,-0.6799 0.1447,-0.2688 0.2185,-0.5664 0.2208,-0.8566 0.004,-0.2885 -0.065,-0.5696 -0.1829,-0.8133 -0.1187,-0.2454 -0.2987,-0.4485 -0.5091,-0.5869 -0.209,-0.1398 -0.4446,-0.217 -0.6723,-0.2393 -0.2283,-0.0196 -0.4472,0.0121 -0.6381,0.0833 -0.1914,0.0698 -0.3537,0.1779 -0.4724,0.3071 -0.1204,0.1277 -0.2015,0.2727 -0.249,0.4089 -0.0964,0.2771 -0.0687,0.515 -0.0318,0.6635 0.0189,0.0758 0.0414,0.131 0.0564,0.1681 0.0168,0.0363 0.0246,0.055 0.0246,0.055 0,0 -0.008,-0.0187 -0.0238,-0.055 -0.0148,-0.0381 -0.0364,-0.0931 -0.0541,-0.1687 -0.0353,-0.1486 -0.0598,-0.3858 0.0393,-0.6598 0.049,-0.135 0.1302,-0.2756 0.2496,-0.4012 0.6512,-0.6839 1.8597,-0.3752 2.2338,0.4473 0.1106,0.2389 0.1709,0.5112 0.1621,0.7897 -0.008,0.2792 -0.0842,0.5633 -0.2281,0.8168 -0.1429,0.2552 -0.3548,0.4765 -0.6108,0.6329 -0.519,0.3102 -1.196,0.391 -1.793,0.1846 -1.2624,-0.4377 -1.7855,-1.9214 -1.3853,-3.1308 0.2681,-0.8148 0.9966,-1.5985 1.8769,-1.7226 0.2683,-0.0405 0.5381,-0.005 0.7948,0.0672 1.193,0.3423 2.2061,1.1154 3.177,1.8593 2.4507,1.878 5.0841,3.7106 7.0958,6.0802 1.4418,1.698 2.029,3.9258 2.2317,6.1004 0.2594,2.7713 0.3319,6.1519 -0.8683,8.7297 -1.003,2.1537 -2.9954,3.3639 -5.1412,4.182 -1.0369,0.395 -2.7961,1.2915 -3.9067,1.2328 2.9011,0.1554 5.9309,-0.9139 9.0032,-0.5168 0.907,0.1181 1.4905,0.5401 1.9755,0.6355 0.7932,0.1544 1.338,-1.5651 5.9665,-0.7918 -0.3817,-0.6608 -0.7834,-0.941 -1.2666,-1.7363 -1.5445,-2.5423 -3.2244,-10.726 -1.6395,-13.1264 1.1003,-0.7035 0.6333,-1.6028 1.9021,-2.2528 0.1709,-0.0869 0.3209,-0.1969 0.4804,-0.2952 1.3354,-0.8243 2.8165,-1.3735 4.2016,-2.1038 1.3004,-0.6853 2.554,-1.4522 3.9041,-2.0411 0.3142,-0.1373 0.6517,-0.3179 1.0083,-0.5183 0.5393,-0.3023 1.1714,-0.6958 1.8178,-0.5991 0.7237,0.1089 1.3282,0.7489 1.5489,1.4207 0.2441,0.7368 0.0973,1.6322 -0.4775,2.1809 -0.1888,0.1806 -0.4179,0.3185 -0.6645,0.4014 -0.4929,0.1708 -1.0508,0.1044 -1.4785,-0.1518 -0.2114,-0.1288 -0.3866,-0.3117 -0.5044,-0.5219 -0.1185,-0.2087 -0.1818,-0.4429 -0.1874,-0.6729 -0.0248,-0.8255 0.7447,-1.5653 1.588,-1.2647 0.1559,0.0538 0.2894,0.1401 0.3873,0.2433 0.0985,0.104 0.1656,0.2202 0.2066,0.3336 0.0665,0.1846 0.0723,0.3868 0.025,0.5762 0.2429,-0.9685 -0.9291,-1.552 -1.6924,-1.0433 -0.1737,0.1146 -0.3216,0.2817 -0.4205,0.4846 -0.0969,0.2006 -0.1536,0.432 -0.1503,0.6703 0.002,0.2392 0.0619,0.4852 0.1825,0.7069 0.5481,1.0157 2.0043,1.0676 2.804,0.3398 0.6346,-0.5779 0.8197,-1.5404 0.5754,-2.3434 z"
           style="fill:#a4863b;fill-rule:evenodd"
           id="path8" />
        <path
           d="m 167.2306,100.0497 c 0.1441,-0.2919 0.3825,-0.8024 0.8404,-0.9839 0.3735,-0.1479 0.7085,-0.0156 0.8087,0.2387 0.0333,0.0829 0.03,0.174 0,0.2644 -0.0475,0.0617 -0.4006,0.4943 -1.0987,0.6791 0,0 0.7045,-0.008 1.2012,-0.4302 0.0814,0.0452 0.1433,0.1085 0.1752,0.19 0.1012,0.2538 -0.1202,0.5789 -0.4932,0.7279 -0.8126,0.3208 -1.8138,-0.2217 -1.8138,-0.2217 0,0 0.2198,-0.1398 0.3802,-0.4643 z"
           style="fill:#a4863b;fill-rule:evenodd"
           id="path10" />
        <path
           d="m 145.4129,88.7765 c 0.6587,-0.0721 1.7955,-0.2227 2.6078,0.3627 0.6626,0.4793 0.8036,1.198 0.4785,1.6494 -0.1073,0.148 -0.2661,0.2436 -0.4542,0.2896 -0.1583,-0.0137 -1.2884,-0.1454 -2.37,-1.141 0,0 0.7851,1.2014 2.055,1.5916 0.0125,0.1875 -0.0285,0.3635 -0.1327,0.5079 -0.3256,0.452 -1.1261,0.4295 -1.7898,-0.0498 -1.4416,-1.0412 -1.6085,-3.3535 -1.6085,-3.3535 0,0 0.4808,0.2235 1.2139,0.1431 z"
           style="fill:#a4863b;fill-rule:evenodd"
           id="path12" />
        <path
           d="m 164.19,82.1634 c 0.2083,0.6283 0.5953,1.708 0.1924,2.6252 -0.3286,0.7489 -1.0022,1.0377 -1.5111,0.8146 -0.167,-0.0736 -0.2948,-0.2092 -0.3789,-0.3825 -0.0204,-0.1588 -0.1283,-1.2908 0.6178,-2.558 0,0 -1.0097,1.0197 -1.1242,2.3441 -0.1804,0.052 -0.3619,0.0491 -0.5246,-0.0225 -0.5094,-0.2236 -0.656,-1.0119 -0.3272,-1.7612 0.7141,-1.628 2.9402,-2.2773 2.9402,-2.2773 0,0 -0.1169,0.5168 0.1156,1.2176 z"
           style="fill:#a4863b;fill-rule:evenodd"
           id="path14" />
        <path
           d="m 157.276,78.3917 c 0.2094,0.6288 0.5965,1.7091 0.1936,2.6263 -0.3283,0.749 -1.002,1.0374 -1.512,0.8146 -0.1673,-0.0736 -0.2937,-0.2094 -0.3781,-0.3837 -0.0202,-0.1575 -0.129,-1.2899 0.6174,-2.5564 0,0 -1.0094,1.0187 -1.1236,2.3438 -0.1814,0.0513 -0.3617,0.0484 -0.5254,-0.0235 -0.5091,-0.2227 -0.6554,-1.0116 -0.3275,-1.7597 0.7154,-1.6286 2.9413,-2.2779 2.9413,-2.2779 0,0 -0.1177,0.5164 0.1143,1.2165 z"
           style="fill:#a4863b;fill-rule:evenodd"
           id="path16" />
        <path
           d="m 174.8907,79.1948 c 0.2417,0.7273 0.6891,1.9747 0.2223,3.0344 -0.3791,0.8647 -1.157,1.1985 -1.7447,0.94 -0.1937,-0.0846 -0.3395,-0.2411 -0.4381,-0.441 -0.0231,-0.1836 -0.1479,-1.4916 0.7133,-2.9547 0,0 -1.1661,1.1779 -1.2978,2.7078 -0.209,0.0591 -0.4177,0.0568 -0.6071,-0.0265 -0.5881,-0.2587 -0.7576,-1.1688 -0.3774,-2.0342 0.8249,-1.8811 3.397,-2.6311 3.397,-2.6311 0,0 -0.136,0.596 0.1325,1.4053 z"
           style="fill:#a4863b;fill-rule:evenodd"
           id="path18" />
        <path
           d="m 176.9854,82.6709 c -0.1554,0.4672 -0.4425,1.2692 -0.1432,1.9485 0.2442,0.5554 0.7431,0.7703 1.1212,0.604 0.1244,-0.0539 0.2185,-0.1546 0.2812,-0.2833 0.015,-0.1183 0.0948,-0.9575 -0.4588,-1.8974 0,0 0.7495,0.7552 0.8334,1.7386 0.1354,0.038 0.2686,0.0373 0.3904,-0.0162 0.3781,-0.1671 0.4869,-0.7514 0.2427,-1.3066 -0.5291,-1.2089 -2.1815,-1.6905 -2.1815,-1.6905 0,0 0.0864,0.3833 -0.0854,0.9029 z"
           style="fill:#a4863b;fill-rule:evenodd"
           id="path20" />
        <path
           d="m 190.2512,95.7648 c -0.3357,-0.1046 -0.9129,-0.3002 -1.3954,-0.0767 -0.3931,0.1814 -0.5402,0.5416 -0.4162,0.8096 0.0404,0.0883 0.1127,0.1543 0.206,0.1974 0.0846,0.0098 0.6863,0.0556 1.3502,-0.3525 0,0 -0.5307,0.5459 -1.2317,0.6185 -0.0258,0.0967 -0.023,0.1927 0.0168,0.2786 0.1247,0.2691 0.5435,0.3387 0.9376,0.1567 0.8572,-0.3946 1.1797,-1.5831 1.1797,-1.5831 0,0 -0.2727,0.0677 -0.647,-0.0485 z"
           style="fill:#a4863b;fill-rule:evenodd"
           id="path22" />
        <path
           d="m 181.0766,86.8618 c 0.2087,0.629 0.5956,1.7095 0.1933,2.6263 -0.329,0.7485 -1.0031,1.0383 -1.5114,0.8143 -0.1672,-0.0731 -0.2952,-0.2085 -0.3791,-0.3826 -0.02,-0.1579 -0.1283,-1.2904 0.6178,-2.557 0,0 -1.0099,1.0196 -1.1236,2.344 -0.1815,0.0513 -0.3623,0.0492 -0.5254,-0.0233 -0.5098,-0.2235 -0.6569,-1.0114 -0.3271,-1.7603 0.7144,-1.6288 2.94,-2.2776 2.94,-2.2776 0,0 -0.1162,0.5165 0.1155,1.2162 z"
           style="fill:#a4863b;fill-rule:evenodd"
           id="path24" />
        <path
           d="m 185.2436,89.5995 c 0.2083,0.6292 0.596,1.7091 0.1929,2.6259 -0.3287,0.7491 -1.0026,1.0374 -1.5114,0.8139 -0.1673,-0.0727 -0.2946,-0.2083 -0.3789,-0.3829 -0.0203,-0.1568 -0.1286,-1.2891 0.6174,-2.5561 0,0 -1.0093,1.0191 -1.1241,2.3441 -0.1797,0.051 -0.361,0.0479 -0.5247,-0.0238 -0.5094,-0.2233 -0.656,-1.0116 -0.3271,-1.7603 0.7141,-1.628 2.9407,-2.2779 2.9407,-2.2779 0,0 -0.1181,0.5172 0.1152,1.2171 z"
           style="fill:#a4863b;fill-rule:evenodd"
           id="path26" />
        <path
           d="m 189.9664,104.685 c -0.701,0.0625 -1.9113,0.2006 -2.7607,-0.4389 -0.6951,-0.5221 -0.8293,-1.2877 -0.4739,-1.7605 0.1162,-0.1552 0.2868,-0.2534 0.487,-0.2988 0.1686,0.018 1.3648,0.1817 2.493,1.2606 0,0 -0.8082,-1.2908 -2.1498,-1.7318 -0.009,-0.1987 0.0383,-0.3856 0.1522,-0.5366 0.3548,-0.4727 1.2052,-0.4331 1.8987,0.0893 1.5088,1.1338 1.6394,3.5929 1.6394,3.5929 0,0 -0.5052,-0.2464 -1.2859,-0.1762 z"
           style="fill:#a4863b;fill-rule:evenodd"
           id="path28" />
        <path
           d="m 146.9615,82.6259 c 0.4937,0.4416 1.3656,1.187 1.4718,2.1833 0.0871,0.8129 -0.3545,1.3983 -0.9074,1.4572 -0.1825,0.0201 -0.3589,-0.035 -0.5194,-0.1435 -0.0958,-0.1279 -0.7524,-1.0568 -0.733,-2.5267 0,0 -0.3702,1.3859 0.1883,2.5925 -0.1311,0.1344 -0.29,0.2221 -0.4679,0.2407 -0.5527,0.0589 -1.0712,-0.5527 -1.1585,-1.3654 -0.1874,-1.768 1.4218,-3.4373 1.4218,-3.4373 0,0 0.1548,0.506 0.7043,0.9992 z"
           style="fill:#a4863b;fill-rule:evenodd"
           id="path30" />
        <path
           d="m 140.0345,90.9367 c 0.3916,-0.4378 1.0512,-1.2127 1.9347,-1.3082 0.7207,-0.0783 1.2405,0.3119 1.2934,0.8026 0.0177,0.1615 -0.0306,0.3184 -0.1268,0.4601 -0.1128,0.0858 -0.936,0.6688 -2.2395,0.6549 0,0 1.2299,0.3254 2.2991,-0.1718 0.1197,0.1168 0.1974,0.257 0.2139,0.4149 0.0535,0.49 -0.4883,0.9512 -1.2089,1.0295 -1.5676,0.1689 -3.0504,-1.2553 -3.0504,-1.2553 0,0 0.4485,-0.1388 0.8845,-0.6267 z"
           style="fill:#a4863b;fill-rule:evenodd"
           id="path32" />
        <path
           d="m 137.2997,95.0961 c 0.2996,-0.3365 0.806,-0.9304 1.4836,-1.004 0.5529,-0.0597 0.9512,0.2398 0.9919,0.6163 0.0135,0.1235 -0.0232,0.2439 -0.0973,0.3531 -0.0865,0.0652 -0.7175,0.5121 -1.7178,0.502 0,0 0.9438,0.2496 1.7636,-0.1316 0.0919,0.0889 0.1514,0.1968 0.1637,0.3179 0.0413,0.3762 -0.3745,0.7293 -0.927,0.7891 -1.2024,0.13 -2.3396,-0.9627 -2.3396,-0.9627 0,0 0.3439,-0.1056 0.6789,-0.4801 z"
           style="fill:#a4863b;fill-rule:evenodd"
           id="path34" />
        <path
           d="m 142.326,101.3006 c 0.0904,-0.2797 0.236,-0.7685 0.6215,-0.9901 0.3147,-0.1821 0.6317,-0.1083 0.7553,0.1056 0.0408,0.0706 0.05,0.1525 0.0354,0.2369 -0.0348,0.0621 -0.2939,0.4949 -0.8943,0.7526 0,0 0.6295,-0.0994 1.0189,-0.5432 0.0783,0.0291 0.1427,0.0773 0.1814,0.147 0.1242,0.2129 -0.0306,0.5338 -0.3454,0.7154 -0.6838,0.3952 -1.6523,0.0427 -1.6523,0.0427 0,0 0.1779,-0.1548 0.2795,-0.4669 z"
           style="fill:#a4863b;fill-rule:evenodd"
           id="path36" />
        <path
           d="m 144.5323,93.9688 c 0.3877,-0.136 1.0542,-0.3862 1.627,-0.1449 0.4675,0.1966 0.6526,0.612 0.519,0.9295 -0.0438,0.1042 -0.1261,0.1837 -0.2338,0.2381 -0.0973,0.0139 -0.7991,0.0919 -1.5913,-0.3581 0,0 0.6414,0.6158 1.464,0.6732 0.0337,0.1124 0.0337,0.2246 -0.01,0.3265 -0.1333,0.3181 -0.6206,0.4169 -1.0878,0.22 -1.017,-0.4285 -1.4405,-1.8026 -1.4405,-1.8026 0,0 0.3216,0.0686 0.7532,-0.0817 z"
           style="fill:#a4863b;fill-rule:evenodd"
           id="path38" />
        <path
           d="m 175.8328,85.9861 c 0.1062,0.322 0.3039,0.8736 0.0989,1.3426 -0.1687,0.3816 -0.5116,0.5293 -0.7721,0.4145 -0.0854,-0.0369 -0.1504,-0.106 -0.1939,-0.1952 -0.01,-0.0796 -0.0662,-0.6587 0.3146,-1.3055 0,0 -0.5139,0.5208 -0.5733,1.1966 -0.0913,0.0254 -0.1844,0.0254 -0.2673,-0.0119 -0.261,-0.1141 -0.3356,-0.5162 -0.1677,-0.8993 0.3656,-0.8308 1.502,-1.1626 1.502,-1.1626 0,0 -0.0608,0.2635 0.0588,0.6208 z"
           style="fill:#a4863b;fill-rule:evenodd"
           id="path40" />
        <path
           d="m 159.2713,94.2713 c 0.3748,0.2738 1.0367,0.7335 1.1804,1.4191 0.1165,0.5612 -0.149,0.9999 -0.5312,1.0797 -0.1244,0.0271 -0.2527,0.0015 -0.3719,-0.0637 -0.0748,-0.0813 -0.5991,-0.6825 -0.6899,-1.7089 0,0 -0.1594,0.9914 0.3147,1.7936 -0.0829,0.1025 -0.1862,0.1757 -0.3091,0.2013 -0.3821,0.08 -0.7858,-0.3094 -0.9041,-0.8712 -0.254,-1.2193 0.7499,-2.4963 0.7499,-2.4963 0,0 0.1427,0.3423 0.5612,0.6464 z"
           style="fill:#a4863b;fill-rule:evenodd"
           id="path42" />
        <path
           d="m 154.3882,90.3935 c 0.3053,0.1472 0.8391,0.3891 1.0332,0.8622 0.157,0.3871 0.0242,0.7368 -0.2387,0.8441 -0.0856,0.0346 -0.1808,0.0344 -0.275,0.0037 -0.0642,-0.0493 -0.5195,-0.4112 -0.7193,-1.1351 0,0 0.0158,0.7321 0.4614,1.2443 -0.0461,0.0846 -0.1104,0.1504 -0.1954,0.184 -0.2635,0.1083 -0.6037,-0.1184 -0.7627,-0.505 -0.3427,-0.8403 0.2087,-1.8876 0.2087,-1.8876 0,0 0.1481,0.2265 0.4878,0.3894 z"
           style="fill:#a4863b;fill-rule:evenodd"
           id="path44" />
        <path
           d="m 152.3026,95.0252 c 0.1604,-0.1975 0.4304,-0.5464 0.8094,-0.6057 0.3104,-0.0486 0.543,0.1099 0.5757,0.3207 0.0111,0.069 -0.006,0.1384 -0.045,0.2013 -0.0468,0.0389 -0.3899,0.3083 -0.9534,0.33 0,0 0.5377,0.1146 0.9889,-0.1225 0.0537,0.0481 0.091,0.1066 0.1008,0.1745 0.0342,0.2111 -0.1906,0.4207 -0.5008,0.4702 -0.6743,0.1056 -1.3441,-0.4787 -1.3441,-0.4787 0,0 0.1906,-0.0694 0.3685,-0.2898 z"
           style="fill:#a4863b;fill-rule:evenodd"
           id="path46" />
        <path
           d="m 153.5086,99.0506 c 0.0573,-0.3343 0.1431,-0.9149 0.5443,-1.2316 0.3286,-0.2575 0.7015,-0.2262 0.8765,-0.0025 0.0581,0.0729 0.0829,0.1646 0.0793,0.2635 -0.0292,0.075 -0.2514,0.6125 -0.8922,1.0037 0,0 0.6995,-0.2177 1.0691,-0.7864 0.0939,0.0213 0.1744,0.0646 0.231,0.1373 0.1758,0.2231 0.0527,0.6126 -0.2754,0.8714 -0.7133,0.5612 -1.8724,0.3199 -1.8724,0.3199 0,0 0.1773,-0.2039 0.2398,-0.5753 z"
           style="fill:#a4863b;fill-rule:evenodd"
           id="path48" />
        <path
           d="m 165.7318,98.3548 c -0.3379,-0.0308 -0.9233,-0.0714 -1.27,-0.446 -0.2823,-0.3073 -0.2801,-0.6814 -0.0712,-0.8731 0.0673,-0.0643 0.1571,-0.0962 0.256,-0.0998 0.0765,0.0225 0.6302,0.2017 1.0706,0.81 0,0 -0.2712,-0.6798 -0.8675,-1.0037 0.0131,-0.0952 0.0504,-0.1796 0.1185,-0.2406 0.2084,-0.1937 0.6071,-0.1014 0.8915,0.206 0.6151,0.6664 0.4651,1.8414 0.4651,1.8414 0,0 -0.2176,-0.1601 -0.593,-0.1942 z"
           style="fill:#a4863b;fill-rule:evenodd"
           id="path50" />
        <path
           d="m 173.9589,101.265 c 0.0573,-0.3333 0.1435,-0.9145 0.5443,-1.2303 0.3286,-0.2581 0.7013,-0.2262 0.8771,-0.003 0.0572,0.0726 0.0829,0.1644 0.0783,0.2632 -0.0286,0.0752 -0.2504,0.6116 -0.892,1.0037 0,0 0.6995,-0.2175 1.069,-0.7858 0.0946,0.0204 0.1753,0.0639 0.2313,0.137 0.176,0.223 0.0529,0.6136 -0.2758,0.8715 -0.7131,0.5616 -1.872,0.3193 -1.872,0.3193 0,0 0.1773,-0.2035 0.2398,-0.5756 z"
           style="fill:#a4863b;fill-rule:evenodd"
           id="path52" />
        <path
           d="m 179.0344,101.3763 c -0.2225,0.1566 -0.6001,0.437 -1.0068,0.3889 -0.3322,-0.0404 -0.5256,-0.2693 -0.4989,-0.495 0.009,-0.0741 0.0464,-0.1402 0.1052,-0.1941 0.0574,-0.0261 0.4891,-0.2048 1.0737,-0.0633 0,0 -0.519,-0.2731 -1.0516,-0.1609 -0.0407,-0.0649 -0.0626,-0.1346 -0.0528,-0.2081 0.0271,-0.2269 0.3173,-0.3779 0.65,-0.3385 0.7235,0.0864 1.2429,0.8812 1.2429,0.8812 0,0 -0.2161,0.0142 -0.4617,0.1898 z"
           style="fill:#a4863b;fill-rule:evenodd"
           id="path54" />
        <path
           d="m 162.0457,78.8047 c 0.1111,0.3352 0.3167,0.9103 0.1036,1.3993 -0.1763,0.3995 -0.5346,0.5532 -0.8058,0.4336 -0.0894,-0.0387 -0.1575,-0.1103 -0.2027,-0.2043 -0.01,-0.0829 -0.0681,-0.687 0.3296,-1.3622 0,0 -0.5381,0.5441 -0.5985,1.2497 -0.0969,0.0267 -0.1936,0.0256 -0.2796,-0.0121 -0.2719,-0.1193 -0.3502,-0.54 -0.1748,-0.9389 0.381,-0.8674 1.567,-1.2136 1.567,-1.2136 0,0 -0.0631,0.2749 0.0612,0.6485 z"
           style="fill:#a4863b;fill-rule:evenodd"
           id="path56" />
        <path
           d="m 146.2668,100.7413 c 0.2937,0.0413 0.8054,0.1035 1.0924,0.4483 0.2344,0.2823 0.2154,0.6104 0.0238,0.77 -0.0629,0.0527 -0.1431,0.0771 -0.2302,0.0754 -0.0664,-0.0236 -0.5435,-0.2071 -0.9016,-0.7606 0,0 0.2064,0.6102 0.7149,0.9214 -0.0158,0.0823 -0.0531,0.1548 -0.1148,0.206 -0.1914,0.1594 -0.5372,0.0603 -0.7718,-0.2214 -0.5103,-0.6139 -0.3245,-1.6374 -0.3245,-1.6374 0,0 0.1835,0.1504 0.5118,0.1983 z"
           style="fill:#a4863b;fill-rule:evenodd"
           id="path58" />
        <path
           d="m 153.9359,106.9492 c -0.2942,-0.041 -0.8056,-0.1033 -1.0935,-0.4483 -0.2335,-0.2827 -0.2144,-0.6103 -0.0234,-0.7701 0.0638,-0.0525 0.1432,-0.0773 0.2307,-0.0757 0.0664,0.0238 0.5427,0.2073 0.9018,0.7613 0,0 -0.2069,-0.61 -0.715,-0.9217 0.0154,-0.0824 0.0532,-0.1543 0.1138,-0.2062 0.1921,-0.1593 0.5376,-0.0604 0.7727,0.2214 0.5101,0.6137 0.3245,1.638 0.3245,1.638 0,0 -0.1839,-0.1512 -0.5116,-0.1987 z"
           style="fill:#a4863b;fill-rule:evenodd"
           id="path60" />
        <path
           d="m 176.6777,90.1683 c 0.2085,0.6283 0.5947,1.7086 0.1929,2.6263 -0.3292,0.7491 -1.0029,1.0369 -1.5124,0.8136 -0.1667,-0.0731 -0.2939,-0.2087 -0.3779,-0.383 -0.0202,-0.1578 -0.129,-1.29 0.6177,-2.5565 0,0 -1.0096,1.0201 -1.1241,2.3438 -0.1813,0.0508 -0.3621,0.0489 -0.5248,-0.0232 -0.5095,-0.2239 -0.6568,-1.0118 -0.3273,-1.7603 0.714,-1.6288 2.9405,-2.2777 2.9405,-2.2777 0,0 -0.1181,0.5168 0.1154,1.217 z"
           style="fill:#a4863b;fill-rule:evenodd"
           id="path62" />
        <path
           d="m 165.9888,87.0712 c 0.007,0.4224 0.0369,1.1545 -0.3829,1.6365 -0.3429,0.3936 -0.8089,0.4406 -1.0764,0.2071 -0.0885,-0.0764 -0.1393,-0.1837 -0.1574,-0.305 0.0181,-0.1006 0.1678,-0.811 0.8647,-1.4403 0,0 -0.8104,0.4285 -1.132,1.2135 -0.1212,-0.0029 -0.231,-0.0394 -0.3162,-0.1146 -0.2679,-0.2335 -0.2065,-0.7412 0.1368,-1.1347 0.7466,-0.8551 2.2265,-0.8262 2.2265,-0.8262 0,0 -0.1702,0.2921 -0.1631,0.7637 z"
           style="fill:#a4863b;fill-rule:evenodd"
           id="path64" />
        <path
           d="m 168.3007,83.1596 c 0.3536,0.2314 0.9764,0.6187 1.1387,1.2362 0.1329,0.5045 -0.0893,0.918 -0.4331,1.0078 -0.1127,0.03 -0.2291,0.0121 -0.3414,-0.0417 -0.0725,-0.0712 -0.5758,-0.5939 -0.705,-1.5232 0,0 -0.1008,0.9101 0.3681,1.618 -0.0706,0.0966 -0.162,0.1681 -0.2725,0.1971 -0.3433,0.09 -0.7295,-0.2465 -0.8626,-0.7512 -0.2881,-1.0981 0.5669,-2.3055 0.5669,-2.3055 0,0 0.1464,0.304 0.5409,0.5625 z"
           style="fill:#a4863b;fill-rule:evenodd"
           id="path66" />
        <path
           d="m 141.4326,97.4007 c 0.2039,-0.3716 0.5403,-1.0222 1.144,-1.2318 0.4931,-0.1729 0.9216,0.0163 1.0385,0.3518 0.0383,0.1103 0.0302,0.2277 -0.015,0.344 -0.0648,0.0777 -0.5471,0.6214 -1.463,0.8222 0,0 0.9151,0.0292 1.5834,-0.4934 0.1027,0.0624 0.1808,0.1485 0.2181,0.2559 0.1171,0.3356 -0.1881,0.7473 -0.6804,0.9181 -1.0726,0.3748 -2.3438,-0.3835 -2.3438,-0.3835 0,0 0.2925,-0.1704 0.5182,-0.5833 z"
           style="fill:#a4863b;fill-rule:evenodd"
           id="path68" />
        <path
           d="m 186.9239,99.0839 c -0.1906,0.3788 -0.505,1.0393 -1.102,1.2699 -0.4873,0.1886 -0.9221,0.0129 -1.0489,-0.3185 -0.0427,-0.1079 -0.0387,-0.2268 0.003,-0.3433 0.062,-0.0808 0.5262,-0.6397 1.4353,-0.871 0,0 -0.9155,0.0011 -1.5668,0.5458 -0.1045,-0.0591 -0.185,-0.1423 -0.226,-0.2493 -0.1281,-0.3311 0.1637,-0.7516 0.6508,-0.9391 1.0589,-0.409 2.3536,0.3066 2.3536,0.3066 0,0 -0.2856,0.1792 -0.4989,0.5989 z"
           style="fill:#a4863b;fill-rule:evenodd"
           id="path70" />
        <path
           d="m 172.1613,86.4089 c 0.1879,0.5088 0.5331,1.3832 0.2284,2.1449 -0.2498,0.6216 -0.794,0.8764 -1.2167,0.7072 -0.1397,-0.0562 -0.2462,-0.1629 -0.3206,-0.3039 -0.02,-0.1281 -0.1393,-1.053 0.4384,-2.1101 0,0 -0.7987,0.8617 -0.8577,1.9495 -0.1473,0.0465 -0.2958,0.0495 -0.4318,-0.0054 -0.4219,-0.169 -0.5638,-0.8112 -0.3142,-1.4326 0.5421,-1.3516 2.3474,-1.9428 2.3474,-1.9428 0,0 -0.0817,0.4256 0.1268,0.9932 z"
           style="fill:#a4863b;fill-rule:evenodd"
           id="path72" />
        <path
           d="m 168.8915,91.4596 c -0.201,0.5552 -0.5245,1.5239 -1.312,1.9439 -0.6424,0.3431 -1.2732,0.1741 -1.5063,-0.2631 -0.0769,-0.1429 -0.0904,-0.3077 -0.054,-0.4766 0.0725,-0.1213 0.621,-0.9736 1.8412,-1.4485 0,0 -1.2687,0.1572 -2.0783,1.0207 -0.1541,-0.0641 -0.2797,-0.1656 -0.3543,-0.3058 -0.2337,-0.4373 0.0985,-1.0686 0.741,-1.412 1.397,-0.7464 3.3127,0.0265 3.3127,0.0265 0,0 -0.3669,0.2969 -0.59,0.9149 z"
           style="fill:#a4863b;fill-rule:evenodd"
           id="path74" />
        <path
           d="m 184.1166,96.9634 c -0.1053,0.5242 -0.2644,1.4362 -0.9127,1.9193 -0.5299,0.3941 -1.117,0.3279 -1.3853,-0.0325 -0.0881,-0.1183 -0.1234,-0.2637 -0.1131,-0.42 0.0487,-0.1183 0.425,-0.956 1.4547,-1.5468 0,0 -1.116,0.3127 -1.7249,1.196 -0.1469,-0.0367 -0.2727,-0.1108 -0.3587,-0.2265 -0.2688,-0.3599 -0.0569,-0.9711 0.4735,-1.3653 1.1509,-0.8568 2.9712,-0.4237 2.9712,-0.4237 0,0 -0.2881,0.3156 -0.4047,0.8995 z"
           style="fill:#a4863b;fill-rule:evenodd"
           id="path76" />
        <path
           d="m 171.1528,93.085 c 0.4657,0.0893 1.2781,0.2264 1.7103,0.8005 0.3532,0.4691 0.2977,0.9918 -0.0208,1.232 -0.1048,0.0784 -0.2341,0.1106 -0.3731,0.1025 -0.105,-0.0423 -0.8522,-0.3722 -1.3839,-1.284 0,0 0.2846,0.9897 1.0739,1.5261 -0.0316,0.1314 -0.0974,0.2433 -0.1995,0.3212 -0.319,0.2396 -0.8633,0.0544 -1.2164,-0.4141 -0.7687,-1.0187 -0.3931,-2.6397 -0.3931,-2.6397 0,0 0.282,0.254 0.8026,0.3555 z"
           style="fill:#a4863b;fill-rule:evenodd"
           id="path78" />
        <path
           d="m 179.5608,93.3395 c 0.0671,0.3502 0.1977,0.9537 -0.0816,1.4153 -0.2277,0.3763 -0.6079,0.4829 -0.8641,0.3282 -0.084,-0.0515 -0.1423,-0.1319 -0.1748,-0.2311 0.001,-0.0852 0.0225,-0.6972 0.5093,-1.3209 0,0 -0.6106,0.4729 -0.7645,1.1726 -0.1002,0.0141 -0.1963,0 -0.2783,-0.0506 -0.2571,-0.1548 -0.2792,-0.5856 -0.0517,-0.9625 0.4964,-0.8185 1.7295,-1.0083 1.7295,-1.0083 0,0 -0.0979,0.2678 -0.0238,0.6573 z"
           style="fill:#a4863b;fill-rule:evenodd"
           id="path80" />
        <path
           d="m 158.3937,82.8838 c 0.3691,0.2997 1.0204,0.8045 1.1308,1.514 0.0896,0.58 -0.2067,1.0152 -0.601,1.0758 -0.129,0.0206 -0.2584,-0.0134 -0.3765,-0.0857 -0.0735,-0.0872 -0.576,-0.7303 -0.6133,-1.7846 0,0 -0.2166,1.0062 0.2248,1.852 -0.0898,0.0995 -0.1998,0.1685 -0.3275,0.188 -0.3933,0.0615 -0.7866,-0.3585 -0.8768,-0.9386 -0.1962,-1.2608 0.9001,-2.5126 0.9001,-2.5126 0,0 0.1288,0.3581 0.5394,0.6917 z"
           style="fill:#a4863b;fill-rule:evenodd"
           id="path82" />
        <path
           d="m 166.704,77.5066 c 0.4828,0.3919 1.3351,1.0527 1.4793,1.9826 0.1187,0.7589 -0.269,1.3288 -0.7854,1.4088 -0.1706,0.0263 -0.339,-0.017 -0.4941,-0.1112 -0.0961,-0.1154 -0.7529,-0.957 -0.8027,-2.3386 0,0 -0.285,1.3178 0.2939,2.4255 -0.117,0.1316 -0.2618,0.221 -0.4279,0.2466 -0.5159,0.0804 -1.0305,-0.4697 -1.1486,-1.2293 -0.2558,-1.6511 1.1778,-3.2908 1.1778,-3.2908 0,0 0.1696,0.4687 0.7077,0.9064 z"
           style="fill:#a4863b;fill-rule:evenodd"
           id="path84" />
        <path
           d="m 145.2158,98.4729 c 0.1365,-0.455 0.3538,-1.2493 0.9685,-1.6228 0.5012,-0.3047 1.016,-0.196 1.2235,0.1446 0.0683,0.1117 0.0866,0.2435 0.0646,0.3808 -0.0532,0.101 -0.4563,0.8112 -1.416,1.2486 0,0 1.0132,-0.1843 1.6255,-0.9151 0.1275,0.045 0.2327,0.1202 0.2991,0.2302 0.2073,0.3408 -0.0316,0.8641 -0.5326,1.1697 -1.0908,0.6621 -2.6659,0.1275 -2.6659,0.1275 0,0 0.2812,-0.2564 0.4333,-0.7635 z"
           style="fill:#a4863b;fill-rule:evenodd"
           id="path86" />
        <path
           d="m 151.2152,80.2991 c 0.2306,0.1869 0.6379,0.5038 0.707,0.9469 0.0561,0.3626 -0.1289,0.6351 -0.3755,0.6736 -0.0813,0.0125 -0.1625,-0.0085 -0.2363,-0.0537 -0.0452,-0.0546 -0.36,-0.4571 -0.3835,-1.1166 0,0 -0.1356,0.6295 0.1408,1.1572 -0.0564,0.0638 -0.1254,0.1061 -0.2043,0.1189 -0.2469,0.038 -0.4927,-0.2239 -0.5487,-0.5876 -0.1227,-0.7885 0.5629,-1.572 0.5629,-1.572 0,0 0.0803,0.2244 0.3376,0.4333 z"
           style="fill:#a4863b;fill-rule:evenodd"
           id="path88" />
        <path
           d="m 186.8201,94.8313 c -0.1031,0.2162 -0.2733,0.5958 -0.6089,0.7349 -0.2741,0.1129 -0.5219,0.0194 -0.5991,-0.1674 -0.0248,-0.0611 -0.0248,-0.1273 -0.003,-0.1944 0.0337,-0.0464 0.2895,-0.3692 0.8026,-0.5141 0,0 -0.5189,0.0137 -0.8824,0.3312 -0.0596,-0.0325 -0.1073,-0.0784 -0.1308,-0.1379 -0.0775,-0.1861 0.0827,-0.4292 0.3554,-0.5423 0.5962,-0.247 1.3409,0.1419 1.3409,0.1419 0,0 -0.1602,0.1066 -0.275,0.3481 z"
           style="fill:#a4863b;fill-rule:evenodd"
           id="path90" />
        <path
           d="m 184.5982,104.2715 c -0.2854,-0.3048 -0.7643,-0.8433 -1.392,-0.8968 -0.5131,-0.044 -0.8745,0.2408 -0.9045,0.5895 -0.0102,0.1152 0.026,0.2252 0.0967,0.3252 0.0816,0.0575 0.6741,0.4581 1.5984,0.4283 0,0 -0.8674,0.2502 -1.6333,-0.0858 -0.0826,0.085 -0.1354,0.1856 -0.1451,0.2975 -0.03,0.3483 0.3612,0.6666 0.8735,0.7097 1.114,0.0965 2.1429,-0.9368 2.1429,-0.9368 0,0 -0.3206,-0.0908 -0.6366,-0.4308 z"
           style="fill:#a4863b;fill-rule:evenodd"
           id="path92" />
      </g>
    </g>
  </g>
</svg>
